<svg width="134" height="38" viewBox="0 0 134 38" fill="none" xmlns="http://www.w3.org/2000/svg">
<path d="M129.225 23.4354V5.19891H133.211V23.4354H129.225Z" fill="#0C1326"/>
<path d="M118.434 23.7741C116.611 23.7741 115.169 23.1575 114.11 21.9244C113.05 20.6912 112.521 19.102 112.521 17.1568C112.521 15.2463 113.068 13.6658 114.162 12.4153C115.256 11.1648 116.698 10.5396 118.486 10.5396C119.372 10.5396 120.162 10.7306 120.857 11.1127C121.552 11.4948 122.073 12.0159 122.42 12.6759V10.8783H126.38V23.4354H122.42V21.6638C122.073 22.2891 121.535 22.8014 120.805 23.2009C120.093 23.583 119.303 23.7741 118.434 23.7741ZM119.581 20.4654C120.536 20.4654 121.274 20.1528 121.795 19.5276C122.316 18.9023 122.577 18.1121 122.577 17.1568C122.577 16.2189 122.316 15.4374 121.795 14.8121C121.274 14.1869 120.536 13.8743 119.581 13.8743C118.677 13.8743 117.948 14.1782 117.392 14.7861C116.854 15.394 116.585 16.1842 116.585 17.1568C116.585 18.1294 116.854 18.9284 117.392 19.5536C117.948 20.1615 118.677 20.4654 119.581 20.4654Z" fill="#0C1326"/>
<path d="M105.641 10.5396C107.36 10.5396 108.75 11.1475 109.809 12.3632C110.886 13.579 111.424 15.1769 111.424 17.1568C111.424 19.1194 110.877 20.7173 109.783 21.9504C108.689 23.1662 107.273 23.7741 105.536 23.7741C104.651 23.7741 103.843 23.5743 103.114 23.1749C102.401 22.7754 101.872 22.2717 101.524 21.6639V23.4354H97.5645V5.19891H101.524V12.6759C101.872 12.0506 102.419 11.5383 103.166 11.1388C103.912 10.7393 104.737 10.5396 105.641 10.5396ZM104.39 20.4655C105.259 20.4655 105.971 20.1615 106.526 19.5536C107.082 18.9284 107.36 18.1295 107.36 17.1568C107.36 16.1842 107.082 15.394 106.526 14.7861C105.971 14.1782 105.259 13.8743 104.39 13.8743C103.487 13.8743 102.758 14.1782 102.202 14.7861C101.646 15.394 101.368 16.1842 101.368 17.1568C101.368 18.1468 101.646 18.9458 102.202 19.5536C102.775 20.1615 103.504 20.4655 104.39 20.4655Z" fill="#0C1326"/>
<path d="M88.7818 23.7741C86.6455 23.7741 84.9434 23.1575 83.6756 21.9244C82.4251 20.6912 81.7998 19.102 81.7998 17.1568C81.7998 15.2116 82.4251 13.6224 83.6756 12.3893C84.9434 11.1561 86.6455 10.5396 88.7818 10.5396C90.9007 10.5396 92.5854 11.1561 93.8359 12.3893C95.1038 13.6224 95.7377 15.2116 95.7377 17.1568C95.7377 19.102 95.1038 20.6912 93.8359 21.9244C92.5854 23.1575 90.9007 23.7741 88.7818 23.7741ZM88.7818 20.4133C89.7023 20.4133 90.4317 20.1181 90.9702 19.5276C91.5086 18.9197 91.7778 18.1294 91.7778 17.1568C91.7778 16.1842 91.5086 15.4026 90.9702 14.8121C90.4317 14.2042 89.7023 13.9003 88.7818 13.9003C87.8439 13.9003 87.1058 14.2042 86.5673 14.8121C86.0463 15.4026 85.7858 16.1842 85.7858 17.1568C85.7858 18.1294 86.0463 18.9197 86.5673 19.5276C87.1058 20.1181 87.8439 20.4133 88.7818 20.4133Z" fill="#0C1326"/>
<path d="M75.9785 23.4354V5.19891H79.9645V23.4354H75.9785Z" fill="#0C1326"/>
<path d="M74.4115 13.8482V17.0266H72.6921C72.2231 19.2323 71.1897 20.9431 69.5919 22.1588C68.0114 23.3572 65.9706 23.9564 63.4696 23.9564C60.5865 23.9564 58.2505 23.062 56.4616 21.2731C54.6901 19.4668 53.813 17.1742 53.8303 14.3953C53.8303 11.6338 54.7074 9.32382 56.4616 7.46543C58.2331 5.60705 60.6473 4.67786 63.7041 4.67786C66.1183 4.67786 68.1156 5.25969 69.6961 6.42335C71.2939 7.58701 72.171 9.0633 72.3273 10.8522H67.7161C67.5424 10.0706 67.0995 9.43671 66.3875 8.9504C65.6927 8.4641 64.807 8.22095 63.7301 8.22095C61.9412 8.22095 60.5691 8.78541 59.6139 9.91433C58.676 11.0433 58.2158 12.5109 58.2331 14.3171C58.2158 16.054 58.6934 17.4868 59.666 18.6157C60.656 19.7273 61.9586 20.2831 63.5738 20.2831C66.1269 20.2831 67.7161 19.1976 68.3414 17.0266H65.0849V13.8482H74.4115Z" fill="#0C1326"/>
<path d="M117.381 30.6234V33.2733H118.963C119.87 33.2733 120.401 32.7839 120.401 31.9543C120.401 31.1367 119.84 30.6234 118.945 30.6234H117.381ZM117.381 34.6579V37.7792H115.579V29.1672H119.196C121.088 29.1672 122.251 30.2176 122.251 31.9304C122.251 33.0286 121.679 33.9835 120.688 34.3774L122.502 37.7792H120.461L118.856 34.6579H117.381Z" fill="#4F80FF"/>
<path d="M112.716 37.7792L112.065 35.7262H109.039L108.377 37.7792H106.568L109.558 29.1672H111.677L114.667 37.7792H112.716ZM110.507 30.9576L109.427 34.3356H111.683L110.615 30.9576H110.507Z" fill="#4F80FF"/>
<path d="M102.612 38C100.117 38 98.5713 36.2752 98.5713 33.4702C98.5713 30.6712 100.111 28.9464 102.612 28.9464C104.653 28.9464 106.216 30.3012 106.348 32.1752H104.593C104.42 31.1844 103.638 30.5339 102.612 30.5339C101.257 30.5339 100.415 31.6559 100.415 33.4702C100.415 35.2845 101.257 36.4125 102.618 36.4125C103.65 36.4125 104.426 35.8038 104.599 34.8548H106.354C106.204 36.7169 104.689 38 102.612 38Z" fill="#4F80FF"/>
<path d="M93.4929 37.7792L92.8423 35.7262H89.8165L89.154 37.7792H87.3457L90.3357 29.1672H92.4544L95.4444 37.7792H93.4929ZM91.2847 30.9576L90.2044 34.3356H92.4604L91.3921 30.9576H91.2847Z" fill="#4F80FF"/>
<path d="M81.743 37.7792H79.9406V30.707H77.3564V29.1672H84.3272V30.707H81.743V37.7792Z" fill="#4F80FF"/>
<path d="M70.7385 37.7792H69.0137V29.1672H70.5176L74.4805 34.5325H74.5879V29.1672H76.3127V37.7792H74.8206L70.8459 32.39H70.7385V37.7792Z" fill="#4F80FF"/>
<path d="M67.6713 36.2394V37.7792H61.9658V29.1672H67.6713V30.707H63.7682V32.7182H67.4505V34.1446H63.7682V36.2394H67.6713Z" fill="#4F80FF"/>
<path d="M55.8375 30.6234V33.2733H57.4191C58.3262 33.2733 58.8574 32.7839 58.8574 31.9543C58.8574 31.1367 58.2964 30.6234 57.4012 30.6234H55.8375ZM55.8375 34.6579V37.7792H54.0352V29.1672H57.6518C59.5437 29.1672 60.7075 30.2176 60.7075 31.9304C60.7075 33.0286 60.1346 33.9835 59.1439 34.3774L60.9582 37.7792H58.9171L57.3116 34.6579H55.8375Z" fill="#4F80FF"/>
<mask id="mask0_239_1105" style="mask-type:luminance" maskUnits="userSpaceOnUse" x="0" y="0" width="47" height="38">
<path d="M0.210938 0H46.8793V37.7068H0.210938V0Z" fill="white"/>
</mask>
<g mask="url(#mask0_239_1105)">
<path d="M12.4338 0.00286865H41.2428C44.7093 0.00286865 47.2644 3.25241 46.4426 6.62348L39.8712 33.5979C39.7294 34.1795 39.4979 34.7235 39.1738 35.227C38.8498 35.7334 38.4504 36.1703 37.9788 36.5407C37.5071 36.9111 36.9892 37.1946 36.422 37.3914C35.8549 37.5882 35.2703 37.6837 34.6714 37.6837H5.86242C2.39585 37.6837 -0.159218 34.4341 0.662572 31.0631L7.234 4.08867C7.37578 3.50705 7.60727 2.96305 7.93136 2.45956C8.25545 1.95317 8.65477 1.51624 9.12643 1.14585C9.59809 0.775467 10.116 0.491891 10.6832 0.295125C11.2504 0.0983583 11.8349 0.00286865 12.4338 0.00286865Z" fill="#4F80FF"/>
</g>
<path d="M22.1188 29.6568C20.5765 29.6568 19.3265 29.4021 18.3687 28.8957C17.408 28.3894 16.7743 27.6486 16.4647 26.6763C16.1522 25.7041 16.1782 24.5177 16.5399 23.1201C16.7338 22.4285 16.9508 21.6935 17.1881 20.9122C17.4254 20.1338 17.6626 19.3902 17.8941 18.6812C18.3774 17.3154 19.0718 16.158 19.9775 15.2089C20.8861 14.2627 21.9742 13.5393 23.2473 13.0387C24.5176 12.541 25.9095 12.2921 27.4228 12.2921C28.6411 12.2921 29.677 12.4397 30.5248 12.7377C31.3755 13.0358 32.0469 13.4351 32.5388 13.9328C33.0249 14.4305 33.3461 14.9774 33.4995 15.5706C33.6528 16.1609 33.647 16.7454 33.485 17.3328C33.4532 17.4862 33.3721 17.6077 33.239 17.6945C33.1146 17.7871 32.9757 17.8363 32.8195 17.8392H29.2603C29.0809 17.8392 28.9565 17.8103 28.8841 17.7553C28.806 17.6887 28.7539 17.6019 28.7308 17.5006C28.6816 17.2344 28.5919 16.9798 28.4646 16.7396C28.3257 16.4734 28.0942 16.2448 27.7701 16.0538C27.4489 15.8628 26.9772 15.7645 26.3609 15.7645C25.4349 15.7645 24.6363 16.0046 23.9592 16.4879C23.285 16.9682 22.7612 17.7408 22.3879 18.8028C21.9163 20.1859 21.4909 21.5835 21.1061 22.9985C20.8138 24.1241 20.8659 24.9373 21.2652 25.435C21.6645 25.9327 22.3214 26.1815 23.2329 26.1815C23.8319 26.1873 24.4106 26.0831 24.9691 25.869C25.5246 25.6549 26.0021 25.3308 26.4014 24.8939C26.8123 24.4511 27.1248 23.884 27.336 23.1924L27.4749 22.7352H25.1832C25.0038 22.7352 24.8736 22.6744 24.7868 22.5529C24.7028 22.4314 24.6884 22.2838 24.7434 22.1044L25.2874 20.3219C25.3452 20.1367 25.4523 19.9892 25.6085 19.8763C25.7561 19.7577 25.924 19.6969 26.112 19.694H32.2523C32.4288 19.694 32.559 19.7548 32.6343 19.8763C32.7124 19.9978 32.724 20.1454 32.669 20.3219L31.8298 23.0709C31.4074 24.454 30.7303 25.6375 29.7985 26.6185C28.8639 27.5994 27.7383 28.3488 26.4159 28.8726C25.0935 29.3934 23.6611 29.6568 22.1188 29.6568Z" fill="white"/>
<path d="M27.2521 6.38043C24.9256 6.38043 22.7843 6.76528 20.8224 7.5321C18.8634 8.29891 17.1851 9.41295 15.7904 10.8713C14.3928 12.3326 13.325 14.1151 12.5814 16.2188C12.2255 17.3068 11.8638 18.4526 11.4963 19.6506C11.3024 20.2843 11.1201 20.8978 10.9465 21.4909C10.9233 21.5749 10.9175 21.6617 10.9349 21.7485C10.9494 21.8353 10.9841 21.9163 11.0391 21.9858C11.0912 22.0581 11.1577 22.1131 11.2358 22.1507C11.3169 22.1912 11.4008 22.2115 11.4876 22.2115H14.9426C15.067 22.2115 15.1798 22.1738 15.2782 22.0986C15.3795 22.0234 15.4461 21.925 15.4808 21.8064C15.6255 21.3086 15.7817 20.7907 15.9438 20.2525C16.2013 19.4133 16.453 18.6118 16.7048 17.8508C17.2227 16.3837 17.9693 15.1365 18.9445 14.118C19.9196 13.0965 21.0915 12.3182 22.4631 11.7828C23.8318 11.2475 25.3278 10.9784 26.954 10.9784C27.8105 10.9784 28.667 10.9639 29.3962 11.0594C29.5814 11.0855 29.7493 11.0479 29.9055 10.9408C30.0589 10.8366 30.1602 10.6919 30.2036 10.5125L30.9241 7.51473C30.9472 7.41924 30.9501 7.32086 30.9328 7.22248C30.9154 7.12699 30.8807 7.03439 30.8257 6.95048C30.7707 6.86656 30.7042 6.79711 30.6202 6.74214C30.5392 6.68716 30.4466 6.65243 30.3511 6.63218C29.4223 6.46435 28.3893 6.38043 27.2521 6.38043Z" fill="white"/>
</svg>
