<svg width="133" height="38" viewBox="0 0 133 38" fill="none" xmlns="http://www.w3.org/2000/svg">
<path d="M129.014 23.4354V5.19891H133V23.4354H129.014Z" fill="white"/>
<path d="M118.224 23.7741C116.401 23.7741 114.959 23.1575 113.9 21.9244C112.84 20.6912 112.311 19.102 112.311 17.1568C112.311 15.2463 112.858 13.6658 113.952 12.4153C115.046 11.1648 116.488 10.5396 118.276 10.5396C119.162 10.5396 119.953 10.7306 120.647 11.1127C121.342 11.4948 121.863 12.0159 122.21 12.6759V10.8783H126.17V23.4354H122.21V21.6638C121.863 22.2891 121.325 22.8014 120.595 23.2009C119.883 23.583 119.093 23.7741 118.224 23.7741ZM119.371 20.4654C120.326 20.4654 121.064 20.1528 121.585 19.5276C122.106 18.9023 122.367 18.1121 122.367 17.1568C122.367 16.2189 122.106 15.4374 121.585 14.8121C121.064 14.1869 120.326 13.8743 119.371 13.8743C118.468 13.8743 117.738 14.1782 117.182 14.7861C116.644 15.394 116.375 16.1842 116.375 17.1568C116.375 18.1294 116.644 18.9284 117.182 19.5536C117.738 20.1615 118.468 20.4654 119.371 20.4654Z" fill="white"/>
<path d="M105.43 10.5396C107.15 10.5396 108.539 11.1475 109.599 12.3632C110.675 13.579 111.214 15.1769 111.214 17.1568C111.214 19.1194 110.667 20.7173 109.572 21.9504C108.478 23.1662 107.063 23.7741 105.326 23.7741C104.44 23.7741 103.633 23.5743 102.903 23.1749C102.191 22.7754 101.661 22.2717 101.314 21.6639V23.4354H97.354V5.19891H101.314V12.6759C101.661 12.0506 102.208 11.5383 102.955 11.1388C103.702 10.7393 104.527 10.5396 105.43 10.5396ZM104.18 20.4655C105.048 20.4655 105.76 20.1615 106.316 19.5536C106.872 18.9284 107.15 18.1295 107.15 17.1568C107.15 16.1842 106.872 15.394 106.316 14.7861C105.76 14.1782 105.048 13.8743 104.18 13.8743C103.277 13.8743 102.547 14.1782 101.991 14.7861C101.436 15.394 101.158 16.1842 101.158 17.1568C101.158 18.1468 101.436 18.9458 101.991 19.5536C102.564 20.1615 103.294 20.4655 104.18 20.4655Z" fill="white"/>
<path d="M88.5718 23.7741C86.4355 23.7741 84.7335 23.1575 83.4656 21.9244C82.2151 20.6912 81.5898 19.102 81.5898 17.1568C81.5898 15.2116 82.2151 13.6224 83.4656 12.3893C84.7335 11.1561 86.4355 10.5396 88.5718 10.5396C90.6907 10.5396 92.3754 11.1561 93.6259 12.3893C94.8938 13.6224 95.5277 15.2116 95.5277 17.1568C95.5277 19.102 94.8938 20.6912 93.6259 21.9244C92.3754 23.1575 90.6907 23.7741 88.5718 23.7741ZM88.5718 20.4133C89.4923 20.4133 90.2218 20.1181 90.7602 19.5276C91.2986 18.9197 91.5678 18.1294 91.5678 17.1568C91.5678 16.1842 91.2986 15.4026 90.7602 14.8121C90.2218 14.2042 89.4923 13.9003 88.5718 13.9003C87.6339 13.9003 86.8958 14.2042 86.3574 14.8121C85.8363 15.4026 85.5758 16.1842 85.5758 17.1568C85.5758 18.1294 85.8363 18.9197 86.3574 19.5276C86.8958 20.1181 87.6339 20.4133 88.5718 20.4133Z" fill="white"/>
<path d="M75.7686 23.4354V5.19891H79.7545V23.4354H75.7686Z" fill="white"/>
<path d="M74.2011 13.8482V17.0266H72.4816C72.0127 19.2323 70.9793 20.9431 69.3814 22.1588C67.8009 23.3572 65.7602 23.9564 63.2592 23.9564C60.3761 23.9564 58.0401 23.062 56.2511 21.2731C54.4796 19.4668 53.6025 17.1742 53.6199 14.3953C53.6199 11.6338 54.497 9.32382 56.2511 7.46543C58.0227 5.60705 60.4369 4.67786 63.4936 4.67786C65.9078 4.67786 67.9051 5.25969 69.4856 6.42335C71.0835 7.58701 71.9606 9.0633 72.1169 10.8522H67.5057C67.332 10.0706 66.8891 9.43671 66.177 8.9504C65.4823 8.4641 64.5965 8.22095 63.5197 8.22095C61.7308 8.22095 60.3587 8.78541 59.4035 9.91433C58.4656 11.0433 58.0053 12.5109 58.0227 14.3171C58.0053 16.054 58.4829 17.4868 59.4556 18.6157C60.4455 19.7273 61.7481 20.2831 63.3634 20.2831C65.9165 20.2831 67.5057 19.1976 68.1309 17.0266H64.8744V13.8482H74.2011Z" fill="white"/>
<path d="M117.171 30.6234V33.2733H118.752C119.659 33.2733 120.19 32.7839 120.19 31.9543C120.19 31.1367 119.629 30.6234 118.734 30.6234H117.171ZM117.171 34.6579V37.7792H115.368V29.1672H118.985C120.877 29.1672 122.041 30.2176 122.041 31.9304C122.041 33.0286 121.468 33.9835 120.477 34.3774L122.291 37.7792H120.25L118.645 34.6579H117.171Z" fill="#4F80FF"/>
<path d="M112.504 37.7792L111.854 35.7262H108.828L108.165 37.7792H106.357L109.347 29.1672H111.466L114.456 37.7792H112.504ZM110.296 30.9576L109.216 34.3356H111.472L110.403 30.9576H110.296Z" fill="#4F80FF"/>
<path d="M102.401 38C99.9061 38 98.3604 36.2752 98.3604 33.4702C98.3604 30.6712 99.9001 28.9464 102.401 28.9464C104.442 28.9464 106.005 30.3012 106.137 32.1752H104.382C104.209 31.1844 103.427 30.5339 102.401 30.5339C101.046 30.5339 100.204 31.6559 100.204 33.4702C100.204 35.2845 101.046 36.4125 102.407 36.4125C103.439 36.4125 104.215 35.8038 104.388 34.8548H106.143C105.994 36.7169 104.478 38 102.401 38Z" fill="#4F80FF"/>
<path d="M93.2824 37.7792L92.6319 35.7262H89.606L88.9436 37.7792H87.1353L90.1253 29.1672H92.244L95.234 37.7792H93.2824ZM91.0742 30.9576L89.994 34.3356H92.2499L91.1816 30.9576H91.0742Z" fill="#4F80FF"/>
<path d="M81.5326 37.7792H79.7302V30.707H77.146V29.1672H84.1167V30.707H81.5326V37.7792Z" fill="#4F80FF"/>
<path d="M70.528 37.7792H68.8032V29.1672H70.3072L74.27 34.5325H74.3774V29.1672H76.1022V37.7792H74.6102L70.6354 32.39H70.528V37.7792Z" fill="#4F80FF"/>
<path d="M67.4609 36.2394V37.7792H61.7554V29.1672H67.4609V30.707H63.5577V32.7182H67.2401V34.1446H63.5577V36.2394H67.4609Z" fill="#4F80FF"/>
<path d="M55.6266 30.6234V33.2733H57.2081C58.1153 33.2733 58.6464 32.7839 58.6464 31.9543C58.6464 31.1367 58.0854 30.6234 57.1902 30.6234H55.6266ZM55.6266 34.6579V37.7792H53.8242V29.1672H57.4409C59.3328 29.1672 60.4966 30.2176 60.4966 31.9304C60.4966 33.0286 59.9236 33.9835 58.9329 34.3774L60.7472 37.7792H58.7061L57.1007 34.6579H55.6266Z" fill="#4F80FF"/>
<mask id="mask0_173_2986" style="mask-type:luminance" maskUnits="userSpaceOnUse" x="0" y="0" width="47" height="38">
<path d="M0 0H46.6684V37.7068H0V0Z" fill="white"/>
</mask>
<g mask="url(#mask0_173_2986)">
<path d="M12.2229 0.00286865H41.0318C44.4984 0.00286865 47.0535 3.25241 46.2317 6.62349L39.6603 33.5979C39.5185 34.1795 39.287 34.7235 38.9629 35.227C38.6388 35.7334 38.2395 36.1703 37.7678 36.5407C37.2962 36.9111 36.7782 37.1946 36.2111 37.3914C35.6439 37.5882 35.0594 37.6837 34.4604 37.6837H5.65148C2.18492 37.6837 -0.370156 34.4341 0.451634 31.063L7.02306 4.08867C7.16485 3.50705 7.39634 2.96305 7.72042 2.45956C8.04451 1.95317 8.44383 1.51623 8.91549 1.14585C9.38715 0.775467 9.90511 0.491891 10.4723 0.295125C11.0394 0.0983583 11.6239 0.00286865 12.2229 0.00286865Z" fill="#4F80FF"/>
</g>
<path d="M21.9079 29.6568C20.3656 29.6568 19.1155 29.4021 18.1578 28.8957C17.1971 28.3894 16.5634 27.6486 16.2537 26.6763C15.9412 25.7041 15.9673 24.5177 16.329 23.1201C16.5229 22.4285 16.7399 21.6935 16.9772 20.9122C17.2144 20.1338 17.4517 19.3902 17.6832 18.6812C18.1664 17.3154 18.8609 16.158 19.7666 15.2089C20.6752 14.2627 21.7632 13.5393 23.0364 13.0387C24.3067 12.541 25.6985 12.2921 27.2119 12.2921C28.4301 12.2921 29.466 12.4397 30.3139 12.7377C31.1646 13.0358 31.8359 13.4351 32.3278 13.9328C32.814 14.4305 33.1352 14.9774 33.2885 15.5706C33.4419 16.1609 33.4361 16.7454 33.2741 17.3328C33.2422 17.4862 33.1612 17.6077 33.0281 17.6945C32.9037 17.7871 32.7648 17.8363 32.6085 17.8392H29.0494C28.87 17.8392 28.7455 17.8103 28.6732 17.7553C28.5951 17.6887 28.543 17.6019 28.5198 17.5006C28.4706 17.2344 28.3809 16.9798 28.2536 16.7396C28.1147 16.4734 27.8832 16.2448 27.5591 16.0538C27.238 15.8628 26.7663 15.7645 26.15 15.7645C25.224 15.7645 24.4253 16.0046 23.7482 16.4879C23.074 16.9682 22.5503 17.7408 22.177 18.8028C21.7053 20.1859 21.28 21.5835 20.8951 22.9985C20.6029 24.1242 20.655 24.9373 21.0543 25.435C21.4536 25.9327 22.1104 26.1815 23.0219 26.1815C23.6209 26.1873 24.1996 26.0831 24.7581 25.869C25.3137 25.6549 25.7911 25.3308 26.1905 24.8939C26.6014 24.4511 26.9139 23.884 27.1251 23.1924L27.264 22.7352H24.9722C24.7928 22.7352 24.6626 22.6744 24.5758 22.5529C24.4919 22.4314 24.4774 22.2838 24.5324 22.1044L25.0764 20.3219C25.1343 20.1367 25.2414 19.9892 25.3976 19.8763C25.5452 19.7577 25.713 19.6969 25.9011 19.694H32.0414C32.2179 19.694 32.3481 19.7548 32.4233 19.8763C32.5015 19.9978 32.513 20.1454 32.4581 20.3219L31.6189 23.0709C31.1964 24.454 30.5193 25.6375 29.5876 26.6185C28.6529 27.5994 27.5273 28.3488 26.2049 28.8726C24.8825 29.3934 23.4502 29.6568 21.9079 29.6568Z" fill="#0C1326"/>
<path d="M27.0411 6.38043C24.7146 6.38043 22.5734 6.76528 20.6115 7.5321C18.6525 8.29891 16.9742 9.41295 15.5795 10.8713C14.1818 12.3326 13.1141 14.1151 12.3704 16.2188C12.0145 17.3068 11.6528 18.4526 11.2853 19.6506C11.0915 20.2843 10.9092 20.8978 10.7355 21.4909C10.7124 21.5749 10.7066 21.6617 10.724 21.7485C10.7384 21.8353 10.7732 21.9163 10.8281 21.9858C10.8802 22.0581 10.9468 22.1131 11.0249 22.1507C11.1059 22.1912 11.1898 22.2115 11.2766 22.2115H14.7316C14.8561 22.2115 14.9689 22.1738 15.0673 22.0986C15.1686 22.0234 15.2351 21.925 15.2698 21.8064C15.4145 21.3086 15.5708 20.7907 15.7328 20.2525C15.9904 19.4133 16.2421 18.6118 16.4939 17.8508C17.0118 16.3837 17.7584 15.1365 18.7335 14.118C19.7087 13.0965 20.8806 12.3182 22.2522 11.7828C23.6209 11.2475 25.1169 10.9784 26.7431 10.9784C27.5996 10.9784 28.4561 10.9639 29.1853 11.0594C29.3705 11.0855 29.5383 11.0479 29.6946 10.9408C29.8479 10.8366 29.9492 10.6919 29.9926 10.5125L30.7131 7.51473C30.7363 7.41924 30.7392 7.32086 30.7218 7.22248C30.7045 7.12699 30.6697 7.03439 30.6147 6.95048C30.5598 6.86656 30.4932 6.79711 30.4093 6.74214C30.3283 6.68716 30.2357 6.65243 30.1402 6.63218C29.2113 6.46435 28.1783 6.38043 27.0411 6.38043Z" fill="#0C1326"/>
</svg>
